<?xml version="1.0" encoding="UTF-8" standalone="no"?>
<!DOCTYPE svg PUBLIC "-//W3C//DTD SVG 1.1//EN" "http://www.w3.org/Graphics/SVG/1.1/DTD/svg11.dtd">
<svg width="100%" height="100%" viewBox="0 0 24 24" version="1.1" xmlns="http://www.w3.org/2000/svg" xmlns:xlink="http://www.w3.org/1999/xlink" xml:space="preserve" xmlns:serif="http://www.serif.com/" style="fill-rule:evenodd;clip-rule:evenodd;stroke-linejoin:round;stroke-miterlimit:2;">
    <g id="Video_Camera" transform="matrix(0.259674,0,0,0.259674,2.16766,2.09377)">
        <path d="M72.9,14.4L56,25.3L56,22C56,17.6 52.4,14 48,14L8,14C3.6,14 0,17.6 0,22L0,54C0,58.4 3.6,62 8,62L48,62C52.4,62 56,58.4 56,54L56,50.7L72.9,61.6C74.8,62.6 76,60.9 76,59.9L76,16C76,15 74.9,13.2 72.9,14.4ZM52,54C52,56.2 50.2,58 48,58L8,58C5.8,58 4,56.2 4,54L4,22C4,19.8 5.8,18 8,18L48,18C50.2,18 52,19.8 52,22L52,54ZM72,56.3L56,46L56,30L72,19.7L72,56.3Z" style="fill-rule:nonzero;"/>
    </g>
</svg>
